<?xml version="1.0" encoding="UTF-8"?>
<!-- This file was generated by npm run build:icons -->
<svg xmlns="http://www.w3.org/2000/svg" xmlns:xlink="http://www.w3.org/1999/xlink" width="0" height="0">
<defs>
<symbol viewBox="0 0 24 24" id="alert-line">
<g clip-path="url(#clip0_4647_8851)">
<path d="M12.866 3L22.392 19.5C22.4798 19.652 22.526 19.8245 22.526 20C22.526 20.1755 22.4798 20.348 22.392 20.5C22.3042 20.652 22.178 20.7782 22.026 20.866C21.874 20.9538 21.7015 21 21.526 21H2.474C2.29846 21 2.12602 20.9538 1.97401 20.866C1.82199 20.7782 1.69576 20.652 1.60799 20.5C1.52022 20.348 1.47402 20.1755 1.47402 20C1.47402 19.8245 1.52023 19.652 1.608 19.5L11.134 3C11.2218 2.84799 11.348 2.72177 11.5 2.63401C11.652 2.54625 11.8245 2.50004 12 2.50004C12.1755 2.50004 12.348 2.54625 12.5 2.63401C12.652 2.72177 12.7782 2.84799 12.866 3ZM4.206 19H19.794L12 5.5L4.206 19ZM11 16H13V18H11V16ZM11 9H13V14H11V9Z"></path>
</g>
<defs>
<clipPath id="clip0_4647_8851">
<rect width="24" height="24"></rect>
</clipPath>
</defs>

</symbol>
<symbol viewBox="0 0 12 7" id="arrow-down">
<path d="M1.63946 0.6985L6 5.05898L10.3605 0.6985C10.393 0.665954 10.4281 0.63748 10.465 0.613074C10.6981 0.4592 11.0065 0.467 11.2319 0.63646C11.2568 0.655174 11.2806 0.675847 11.3033 0.698501C11.3729 0.768101 11.4239 0.849261 11.4563 0.935801C11.4996 1.05158 11.5096 1.17699 11.4863 1.29723C11.4619 1.42329 11.4009 1.54367 11.3033 1.64131L6.4714 6.47318C6.34633 6.59825 6.1768 6.66845 6 6.66845C5.82313 6.66845 5.6536 6.59825 5.52853 6.47318L0.696664 1.64131C0.436331 1.38095 0.436331 0.958847 0.696664 0.6985C0.729197 0.665953 0.764264 0.63748 0.801264 0.613073C1.06 0.442213 1.41166 0.470693 1.63946 0.6985Z"></path>

</symbol>
<symbol viewBox="0 0 20 20" id="arrow-narrow-left">
<path d="M3.33325 10L16.6666 10M3.33325 10L8.33325 15M3.33325 10L8.33325 5" stroke="currentColor" stroke-width="1.66667" stroke-linecap="round" stroke-linejoin="round"></path>
</symbol>
<symbol viewBox="0 0 24 24" id="bell">
  <path fill-rule="evenodd" clip-rule="evenodd" d="M8.06299 19H4.33771C3.59891 19 3 18.4011 3 17.6623V16.7893C3 16.2839 3.20077 15.7992 3.55814 15.4419C4.48135 14.5187 5 13.2665 5 11.9609V9C5 5.13401 8.13401 2 12 2C15.866 2 19 5.13401 19 9V11.9609C19 13.2665 19.5187 14.5187 20.4419 15.4419C20.7992 15.7992 21 16.2839 21 16.7893V17.6623C21 18.4011 20.4011 19 19.6623 19H15.937C15.937 19.3646 15.9295 20.1575 15.5048 20.9285C14.827 22.1591 13.5131 23 12 23C10.4869 23 9.17297 22.1591 8.49515 20.9285C8.07046 20.1575 8.06299 19.3646 8.06299 19ZM17 11.9609C17 13.7839 17.719 15.5327 19 16.8283V17H5V16.8283C6.28099 15.5327 7 13.7839 7 11.9609V9C7 6.23858 9.23858 4 12 4C14.7614 4 17 6.23858 17 9V11.9609ZM13.937 19H10.063C10.063 19.332 10.0868 19.6728 10.247 19.9636C10.5863 20.5796 11.2409 20.9975 11.9933 21H12H12.0066C12.7591 20.9975 13.4137 20.5796 13.753 19.9636C13.9132 19.6728 13.937 19.332 13.937 19Z"></path>

</symbol>
<symbol viewBox="0 0 18 19" id="bin">
<path d="M6.50008 8.75019C6.82551 8.42477 7.35316 8.42477 7.67858 8.75019L9.00008 10.0717L10.3216 8.75019C10.647 8.42477 11.1747 8.42477 11.5001 8.75019C11.8255 9.0756 11.8255 9.60327 11.5001 9.92869L10.1786 11.2502L11.5001 12.5717C11.8255 12.8971 11.8255 13.4248 11.5001 13.7502C11.1747 14.0756 10.647 14.0756 10.3216 13.7502L9.00008 12.4287L7.67858 13.7502C7.35316 14.0756 6.82552 14.0756 6.50008 13.7502C6.17465 13.4248 6.17465 12.8971 6.50008 12.5717L7.82158 11.2502L6.50008 9.92869C6.17465 9.60327 6.17465 9.0756 6.50008 8.75019Z"></path>
<path fill-rule="evenodd" clip-rule="evenodd" d="M6.50008 0.833496C5.57961 0.833496 4.83341 1.57969 4.83341 2.50017V4.16683H1.50008C1.03985 4.16683 0.666748 4.53992 0.666748 5.00017C0.666748 5.4604 1.03985 5.8335 1.50008 5.8335H2.43146L3.07446 16.7647C3.12629 17.6457 3.8558 18.3335 4.73826 18.3335H13.2619C14.1443 18.3335 14.8739 17.6457 14.9257 16.7647L15.5687 5.8335H16.5001C16.9603 5.8335 17.3334 5.4604 17.3334 5.00017C17.3334 4.53992 16.9603 4.16683 16.5001 4.16683H13.1667V2.50017C13.1667 1.57969 12.4206 0.833496 11.5001 0.833496H6.50008ZM11.5001 4.16683V2.50017H6.50008V4.16683H11.5001ZM13.8992 5.8335H4.10101L4.73826 16.6668H13.2619L13.8992 5.8335Z"></path>

</symbol>
<symbol viewBox="0 0 15 15" id="bookmark-filled">
  <path d="M3.5 2C3.22386 2 3 2.22386 3 2.5V13.5C3 13.6818 3.09864 13.8492 3.25762 13.9373C3.41659 14.0254 3.61087 14.0203 3.765 13.924L7.5 11.5896L11.235 13.924C11.3891 14.0203 11.5834 14.0254 11.7424 13.9373C11.9014 13.8492 12 13.6818 12 13.5V2.5C12 2.22386 11.7761 2 11.5 2H3.5Z" fill-rule="evenodd" clip-rule="evenodd">
  </path>

</symbol>
<symbol viewBox="0 0 15 15" id="bookmark">
  <path d="M3 2.5C3 2.22386 3.22386 2 3.5 2H11.5C11.7761 2 12 2.22386 12 2.5V13.5C12 13.6818 11.9014 13.8492 11.7424 13.9373C11.5834 14.0254 11.3891 14.0203 11.235 13.924L7.5 11.5896L3.765 13.924C3.61087 14.0203 3.41659 14.0254 3.25762 13.9373C3.09864 13.8492 3 13.6818 3 13.5V2.5ZM4 3V12.5979L6.97 10.7416C7.29427 10.539 7.70573 10.539 8.03 10.7416L11 12.5979V3H4Z" fill-rule="evenodd" clip-rule="evenodd">
  </path>

</symbol>
<symbol viewBox="0 0 18 19" id="caret-right">
<g opacity="0.5">
<path d="M6.40223 14.4052L11.3078 9.4997L6.40223 4.5941C6.36555 4.5575 6.33353 4.51805 6.30608 4.4765C6.11385 4.18535 6.14595 3.78972 6.40223 3.53345C6.6951 3.24057 7.16993 3.24057 7.46288 3.53345L12.8987 8.96937C13.0394 9.11 13.1184 9.30072 13.1184 9.4997C13.1184 9.6986 13.0394 9.88932 12.8987 10.03L7.46288 15.4659C7.16993 15.7588 6.6951 15.7588 6.40223 15.4659C6.10928 15.173 6.10928 14.6981 6.40223 14.4052Z"></path>
</g>

</symbol>
<symbol viewBox="0 0 24 24" id="check-small">
<path d="M17.5001 8.49284C17.8906 8.88336 17.8906 9.51656 17.5001 9.90706L11.7072 15.7C11.3167 16.0905 10.6835 16.0905 10.293 15.7L7.0001 12.4071C6.60958 12.0166 6.60958 11.3834 7.0001 10.9929C7.39063 10.6024 8.02379 10.6024 8.41432 10.9929L11.0001 13.5787L16.0859 8.49284C16.1347 8.44402 16.1873 8.40131 16.2428 8.3647C16.6309 8.10842 17.1584 8.15113 17.5001 8.49284Z"></path>
</symbol>
<symbol viewBox="0 0 24 24" id="check">
<path d="M20.9953 6.96425C21.387 6.57492 21.3889 5.94176 20.9996 5.55005C20.6102 5.15834 19.9771 5.15642 19.5854 5.54575L8.97661 16.0903L4.41377 11.5573C4.02196 11.1681 3.3888 11.1702 2.99956 11.562C2.61032 11.9538 2.6124 12.5869 3.0042 12.9762L8.27201 18.2095C8.66206 18.597 9.29179 18.5969 9.68175 18.2093L20.9953 6.96425Z"></path>
</symbol>
<symbol viewBox="0 0 24 24" id="chevron-selector-vertical">
<g opacity="0.5">
<path d="M6 9L11.3598 4.53349C11.7307 4.22445 12.2693 4.22445 12.6402 4.53349L18 9M6 15L11.3598 19.4665C11.7307 19.7756 12.2693 19.7756 12.6402 19.4665L18 15" stroke="white" stroke-width="2" stroke-linecap="round" stroke-linejoin="round"></path>
</g>

</symbol>
<symbol viewBox="0 0 24 24" id="circle">
<g clip-path="url(#clip0_4647_8937)">
<path d="M12 22C17.5228 22 22 17.5228 22 12C22 6.47715 17.5228 2 12 2C6.47715 2 2 6.47715 2 12C2 17.5228 6.47715 22 12 22Z"></path>
</g>
<defs>
<clipPath id="clip0_4647_8937">
<rect width="24" height="24"></rect>
</clipPath>
</defs>
</symbol>
<symbol viewBox="0 0 24 24" id="close-circle-line">
<g clip-path="url(#clip0_4647_9093)">
<path d="M12 22C6.477 22 2 17.523 2 12C2 6.477 6.477 2 12 2C17.523 2 22 6.477 22 12C22 17.523 17.523 22 12 22ZM12 20C14.1217 20 16.1566 19.1571 17.6569 17.6569C19.1571 16.1566 20 14.1217 20 12C20 9.87827 19.1571 7.84344 17.6569 6.34315C16.1566 4.84285 14.1217 4 12 4C9.87827 4 7.84344 4.84285 6.34315 6.34315C4.84285 7.84344 4 9.87827 4 12C4 14.1217 4.84285 16.1566 6.34315 17.6569C7.84344 19.1571 9.87827 20 12 20ZM12 10.586L14.828 7.757L16.243 9.172L13.414 12L16.243 14.828L14.828 16.243L12 13.414L9.172 16.243L7.757 14.828L10.586 12L7.757 9.172L9.172 7.757L12 10.586Z"></path>
</g>
<defs>
<clipPath id="clip0_4647_9093">
<rect width="24" height="24"></rect>
</clipPath>
</defs>

</symbol>
<symbol viewBox="0 0 20 20" id="close">
<g clip-path="url(#clip0_883_21708)">
<path d="M9.99962 8.82129L14.1246 4.69629L15.303 5.87462L11.178 9.99962L15.303 14.1246L14.1246 15.303L9.99962 11.178L5.87462 15.303L4.69629 14.1246L8.82129 9.99962L4.69629 5.87462L5.87462 4.69629L9.99962 8.82129Z"></path>
</g>
<defs>
<clipPath id="clip0_883_21708">
<rect width="20" height="20"></rect>
</clipPath>
</defs>

</symbol>
<symbol viewBox="0 0 20 20" id="copy">
    <path d="M15.8333 12.5C16.7538 12.5 17.5 11.7538 17.5 10.8333V4.16667C17.5 3.24619 16.7538 2.5 15.8333 2.5H9.16667C8.24619 2.5 7.5 3.24619 7.5 4.16667M10.8333 17.5H4.16667C3.24619 17.5 2.5 16.7538 2.5 15.8333V9.16667C2.5 8.24619 3.24619 7.5 4.16667 7.5H10.8333C11.7538 7.5 12.5 8.24619 12.5 9.16667V15.8333C12.5 16.7538 11.7538 17.5 10.8333 17.5Z" stroke="#FBFDFF" stroke-width="2" stroke-linecap="round"></path>
  </symbol>
<symbol viewBox="0 0 18 19" id="delete">
<path d="M7.5 8.00001C7.91422 8.00001 8.25 8.3358 8.25 8.75003V12.5C8.25 12.9143 7.91422 13.25 7.5 13.25C7.08579 13.25 6.75 12.9143 6.75 12.5V8.75003C6.75 8.3358 7.08579 8.00001 7.5 8.00001Z"></path>
<path d="M10.5 8.00001C10.9142 8.00001 11.25 8.3358 11.25 8.75003V12.5C11.25 12.9143 10.9142 13.25 10.5 13.25C10.0858 13.25 9.75 12.9143 9.75 12.5V8.75003C9.75 8.3358 10.0858 8.00001 10.5 8.00001Z"></path>
<path fill-rule="evenodd" clip-rule="evenodd" d="M6.75 1.25C5.92157 1.25 5.25 1.92157 5.25 2.75V4.25H2.25C1.83579 4.25 1.5 4.58578 1.5 5C1.5 5.41421 1.83579 5.75 2.25 5.75H3.08824L3.66694 15.5881C3.71359 16.381 4.37014 17 5.16436 17H12.8357C13.6298 17 14.2865 16.381 14.333 15.5881L14.9118 5.75H15.75C16.1642 5.75 16.5 5.41421 16.5 5C16.5 4.58578 16.1642 4.25 15.75 4.25H12.75V2.75C12.75 1.92157 12.0784 1.25 11.25 1.25H6.75ZM4.59083 5.75L5.16436 15.5H12.8357L13.4092 5.75H4.59083ZM6.75 2.75H11.25V4.25H6.75V2.75Z"></path>

</symbol>
<symbol viewBox="0 0 15 15" id="edit">
  <g>
    <path d="M6.11678 6.17569L5.30557 8.88087C5.23668 9.11095 5.29962 9.36059 5.46951 9.53027C5.59369 9.65446 5.76062 9.72165 5.93136 9.72165C5.99409 9.72165 6.05725 9.71271 6.11891 9.694L8.82431 8.883C8.92786 8.85195 9.02228 8.79582 9.09861 8.71927L14.0586 3.75927C14.1811 3.63679 14.25 3.4705 14.25 3.29741C14.25 3.12433 14.1811 2.95804 14.0586 2.83556L12.1642 0.941376C11.9091 0.686208 11.4957 0.686208 11.2405 0.941376L6.28073 5.90138C6.20418 5.97793 6.14804 6.07192 6.11678 6.17569ZM7.32096 6.70856L11.7024 2.32693L12.6729 3.29741L8.29144 7.67904L6.90546 8.09454L7.32096 6.70856Z" fill-rule="evenodd" clip-rule="evenodd"></path>
    <path d="M13.5968 6.84677C13.2359 6.84677 12.9435 7.13937 12.9435 7.5V11.8548C12.9435 12.4553 12.4551 12.9435 11.8548 12.9435H3.14516C2.54488 12.9435 2.05645 12.4553 2.05645 11.8548V3.14516C2.05645 2.54467 2.54488 2.05645 3.14516 2.05645H7.5C7.86085 2.05645 8.15323 1.76386 8.15323 1.40323C8.15323 1.04259 7.86085 0.75 7.5 0.75H3.14516C1.82446 0.75 0.75 1.82467 0.75 3.14516V11.8548C0.75 13.1753 1.82446 14.25 3.14516 14.25H11.8548C13.1755 14.25 14.25 13.1753 14.25 11.8548V7.5C14.25 7.13937 13.9576 6.84677 13.5968 6.84677Z" fill-rule="evenodd" clip-rule="evenodd"></path>
  </g>

</symbol>
<symbol viewBox="0 0 20 20" id="expand-full">
<path d="M2.5 17.5V13.3333M2.5 17.5H6.66667M2.5 17.5L7.5 12.5M12.5 7.5L17.5 2.5M17.5 2.5V6.66667M17.5 2.5H13.3333M17.5 17.5V13.3333M17.5 17.5H13.3333M17.5 17.5L12.5 12.5M7.5 7.5L2.5 2.5M2.5 2.5V6.66667M2.5 2.5H6.66667" stroke="white" stroke-width="1.66667" stroke-linecap="round" stroke-linejoin="round"></path>
</symbol>
<symbol viewBox="0 0 14 14" id="expand">
<path d="M2.49976 11.773V9.12148M2.49976 11.773H5.15127M2.49976 11.773L5.68157 8.59118M8.86339 5.40936L12.0452 2.22754M12.0452 2.22754V4.87905M12.0452 2.22754H9.39369" stroke="currentColor" stroke-width="1.27273" stroke-linecap="round" stroke-linejoin="round"></path>
</symbol>
<symbol viewBox="0 0 24 24" id="eye-line">
<g clip-path="url(#clip0_4403_12324)">
<path d="M12 3C17.392 3 21.878 6.88 22.819 12C21.879 17.12 17.392 21 12 21C6.608 21 2.122 17.12 1.181 12C2.121 6.88 6.608 3 12 3ZM12 19C14.0395 18.9996 16.0184 18.3068 17.6129 17.0352C19.2073 15.7635 20.3229 13.9883 20.777 12C20.3212 10.0133 19.2049 8.24 17.6106 6.97003C16.0163 5.70005 14.0383 5.00853 12 5.00853C9.9617 5.00853 7.98369 5.70005 6.38938 6.97003C4.79506 8.24 3.67877 10.0133 3.223 12C3.6771 13.9883 4.79267 15.7635 6.38714 17.0352C7.98161 18.3068 9.96053 18.9996 12 19ZM12 16.5C10.8065 16.5 9.66193 16.0259 8.81802 15.182C7.97411 14.3381 7.5 13.1935 7.5 12C7.5 10.8065 7.97411 9.66193 8.81802 8.81802C9.66193 7.97411 10.8065 7.5 12 7.5C13.1935 7.5 14.3381 7.97411 15.182 8.81802C16.0259 9.66193 16.5 10.8065 16.5 12C16.5 13.1935 16.0259 14.3381 15.182 15.182C14.3381 16.0259 13.1935 16.5 12 16.5ZM12 14.5C12.663 14.5 13.2989 14.2366 13.7678 13.7678C14.2366 13.2989 14.5 12.663 14.5 12C14.5 11.337 14.2366 10.7011 13.7678 10.2322C13.2989 9.76339 12.663 9.5 12 9.5C11.337 9.5 10.7011 9.76339 10.2322 10.2322C9.76339 10.7011 9.5 11.337 9.5 12C9.5 12.663 9.76339 13.2989 10.2322 13.7678C10.7011 14.2366 11.337 14.5 12 14.5Z"></path>
</g>
<defs>
<clipPath id="clip0_4403_12324">
<rect width="24" height="24"></rect>
</clipPath>
</defs>

</symbol>
<symbol viewBox="0 0 24 24" id="eye-off-line">
<g clip-path="url(#clip0_4647_9044)">
<path d="M17.882 19.297C16.1232 20.4126 14.0827 21.0033 12 21C6.608 21 2.122 17.12 1.181 12C1.61103 9.67072 2.78263 7.5429 4.521 5.93401L1.392 2.80801L2.807 1.39301L22.606 21.193L21.191 22.607L17.881 19.297H17.882ZM5.935 7.35001C4.576 8.5856 3.62932 10.2088 3.223 12C3.53529 13.3665 4.16226 14.6411 5.054 15.7226C5.94574 16.804 7.07763 17.6624 8.35955 18.2293C9.64148 18.7962 11.038 19.0561 12.4381 18.9881C13.8381 18.9202 15.203 18.5264 16.424 17.838L14.396 15.81C13.5327 16.3538 12.5102 16.5881 11.4962 16.4744C10.4823 16.3608 9.53704 15.9059 8.81557 15.1844C8.0941 14.463 7.63923 13.5177 7.52556 12.5038C7.4119 11.4898 7.64618 10.4673 8.19 9.60401L5.935 7.35001ZM12.914 14.328L9.672 11.086C9.49406 11.5389 9.45219 12.034 9.55151 12.5104C9.65082 12.9867 9.88702 13.4238 10.2311 13.7679C10.5752 14.112 11.0123 14.3482 11.4887 14.4475C11.965 14.5468 12.4601 14.5049 12.913 14.327L12.914 14.328ZM20.807 16.592L19.376 15.162C20.0445 14.2093 20.5204 13.1352 20.777 12C20.5052 10.8097 19.9943 9.68715 19.2751 8.7005C18.556 7.71385 17.6438 6.88373 16.5939 6.26061C15.544 5.63749 14.3783 5.23437 13.1677 5.07577C11.9572 4.91717 10.727 5.00638 9.552 5.33801L7.974 3.76001C9.221 3.27001 10.58 3.00001 12 3.00001C17.392 3.00001 21.878 6.88001 22.819 12C22.5126 13.6657 21.8239 15.2376 20.807 16.592ZM11.723 7.50801C12.3595 7.46867 12.9971 7.56507 13.5935 7.79082C14.19 8.01657 14.7316 8.36652 15.1825 8.81746C15.6335 9.2684 15.9834 9.81003 16.2092 10.4065C16.4349 11.0029 16.5313 11.6405 16.492 12.277L11.722 7.50801H11.723Z"></path>
</g>
<defs>
<clipPath id="clip0_4647_9044">
<rect width="24" height="24"></rect>
</clipPath>
</defs>

</symbol>
<symbol viewBox="0 0 14 16" id="file">
<path d="M6.99984 1.09176C6.80525 0.993964 6.58849 0.941406 6.36587 0.941406H3.47043C2.30089 0.941406 1.35278 1.88951 1.35278 3.05905V12.9414C1.35278 14.111 2.30089 15.0591 3.47043 15.0591H10.5293C11.6988 15.0591 12.6469 14.111 12.6469 12.9414V7.8311C12.6469 7.64545 12.6103 7.46327 12.5409 7.29435M6.99984 1.09176C7.15773 1.17111 7.30103 1.28024 7.42103 1.41525L12.2903 6.89317C12.3967 7.01284 12.481 7.14866 12.5409 7.29435M6.99984 1.09176V5.1767C6.99984 6.34624 7.94794 7.29435 9.11749 7.29435H12.5409" stroke="currentColor" stroke-width="1.41176"></path>
</symbol>
<symbol viewBox="0 0 18 15" id="folder-open">
<path d="M13.295 13.5C14.2795 13.5 15.0179 12.634 14.8248 11.7058L13.8888 7.20583C13.7429 6.50469 13.1027 6 12.359 6H3.69269M13.295 13.5H4.48485H3.99659C3.25295 13.5 2.61269 12.9953 2.46685 12.2942L1.53082 7.79417C1.33776 6.86599 2.07611 6 3.06057 6H3.69269M13.295 13.5H13.8596C14.6296 13.5 15.2844 12.9598 15.4015 12.2281L16.4815 5.47809C16.6269 4.56945 15.8958 3.75 14.9396 3.75H11.3528C10.8312 3.75 10.3441 3.49935 10.0547 3.08205L9.42095 2.16795C9.13162 1.75065 8.64452 1.5 8.12292 1.5H5.65488C4.86812 1.5 4.20448 2.0633 4.10689 2.81395L3.69269 6" stroke="currentColor" stroke-width="1.5" stroke-linecap="round" stroke-linejoin="round"></path>
</symbol>
<symbol viewBox="0 0 18 17" id="globe">
<path d="M9 16C5.5053 16 2.56886 13.6098 1.73628 10.375M9 16C12.4947 16 15.4311 13.6098 16.2637 10.375M9 16C7.53893 14.5943 6.64712 12.5546 6.32457 10.375M9 16C10.4611 14.5943 11.3529 12.5546 11.6754 10.375M1.73628 10.375C1.58204 9.77571 1.5 9.14744 1.5 8.5C1.5 7.85256 1.58204 7.22429 1.73628 6.625M1.73628 10.375H6.32457M16.2637 10.375C16.418 9.77571 16.5 9.14744 16.5 8.5C16.5 7.85256 16.418 7.22429 16.2637 6.625M16.2637 10.375H11.6754M9 1C12.4947 1 15.4311 3.3902 16.2637 6.625M9 1C5.5053 1 2.56886 3.3902 1.73628 6.625M9 1C7.53893 2.40569 6.64712 4.44536 6.32457 6.625M9 1C10.4611 2.40569 11.3529 4.44536 11.6754 6.625M16.2637 6.625H11.6754M1.73628 6.625H6.32457M6.32457 6.625C6.14181 7.86002 6.14181 9.13998 6.32457 10.375M6.32457 6.625H11.6754M6.32457 10.375H11.6754M11.6754 6.625C11.8582 7.86002 11.8582 9.13998 11.6754 10.375" stroke="currentColor" stroke-width="1.5"></path>

</symbol>
<symbol viewBox="0 0 15 15" id="ia-filled">
  <path d="M6.60718 3.95744C6.87319 3.86536 6.87319 3.70166 6.60718 3.59935L5.16462 3.04688C4.90885 2.95479 4.61216 2.65809 4.50985 2.39209L3.95739 0.949511C3.8653 0.683496 3.70161 0.683496 3.5993 0.949511L3.04683 2.39209C2.95476 2.64786 2.65806 2.94456 2.39206 3.04688L0.949503 3.59935C0.683499 3.69143 0.683499 3.85512 0.949503 3.95744L2.39206 4.50991C2.64783 4.602 2.94452 4.89869 3.04683 5.1647L3.5993 6.60728C3.69138 6.87328 3.85507 6.87328 3.95739 6.60728L4.50985 5.1647C4.60193 4.90892 4.89862 4.61222 5.16462 4.50991L6.60718 3.95744ZM13.6361 9.01168C14.4546 8.80704 14.4546 8.46941 13.6361 8.26478L11.8253 7.81461C11.0068 7.60999 10.1679 6.77105 9.96326 5.95256L9.51315 4.14166C9.3085 3.32318 8.97088 3.32318 8.76626 4.14166L8.3161 5.95256C8.11148 6.77105 7.27255 7.60999 6.45408 7.81461L4.64321 8.26478C3.82475 8.46941 3.82475 8.80704 4.64321 9.01168L6.45408 9.4618C7.27255 9.66645 8.11148 10.5054 8.3161 11.3239L8.76626 13.1348C8.97088 13.9532 9.3085 13.9532 9.51315 13.1348L9.96326 11.3239C10.1679 10.5054 11.0068 9.66645 11.8253 9.4618L13.6361 9.01168Z" fill-rule="evenodd" clip-rule="evenodd">
  </path>

</symbol>
<symbol viewBox="0 0 15 15" id="inbox">
  <path d="M1.41469 5.96178C1.30677 6.15066 1.25 6.36444 1.25 6.58194V11.25C1.25 11.9404 1.80964 12.5 2.5 12.5H12.5C13.1904 12.5 13.75 11.9404 13.75 11.25V6.58194C13.75 6.36444 13.6932 6.15066 13.5853 5.96178L11.6099 2.50482C11.3874 2.11536 10.9732 1.875 10.5246 1.875H4.47541C4.02683 1.875 3.61266 2.11536 3.3901 2.50482L1.41469 5.96178ZM12.3103 6.25L10.5246 3.125H4.47541L2.68969 6.25H4.6875C5.03268 6.25 5.3035 6.5355 5.40065 6.86675C5.66692 7.77456 6.50606 8.4375 7.5 8.4375C8.49394 8.4375 9.33306 7.77456 9.59937 6.86675C9.6965 6.5355 9.96731 6.25 10.3125 6.25H12.3103ZM12.5 7.5H10.7027C10.2029 8.7795 8.95894 9.6875 7.5 9.6875C6.04109 9.6875 4.79707 8.7795 4.29722 7.5H2.5V11.25H12.5V7.5Z" fill-rule="evenodd" clip-rule="evenodd"></path>

</symbol>
<symbol viewBox="0 0 24 24" id="info">
<path fill-rule="evenodd" clip-rule="evenodd" d="M12 1C5.92487 1 1 5.92487 1 12C1 18.0751 5.92487 23 12 23C18.0751 23 23 18.0751 23 12C23 5.92487 18.0751 1 12 1ZM3 12C3 7.02944 7.02944 3 12 3C16.9706 3 21 7.02944 21 12C21 16.9706 16.9706 21 12 21C7.02944 21 3 16.9706 3 12ZM13 7C13 6.44772 12.5523 6 12 6C11.4477 6 11 6.44772 11 7V14C11 14.5523 11.4477 15 12 15C12.5523 15 13 14.5523 13 14V7ZM12 18C12.5523 18 13 17.5523 13 17C13 16.4477 12.5523 16 12 16C11.4477 16 11 16.4477 11 17C11 17.5523 11.4477 18 12 18Z"></path>

</symbol>
<symbol viewBox="0 0 24 24" id="information-line">
<g clip-path="url(#clip0_4647_8881)">
<path d="M12 22C6.477 22 2 17.523 2 12C2 6.477 6.477 2 12 2C17.523 2 22 6.477 22 12C22 17.523 17.523 22 12 22ZM12 20C14.1217 20 16.1566 19.1571 17.6569 17.6569C19.1571 16.1566 20 14.1217 20 12C20 9.87827 19.1571 7.84344 17.6569 6.34315C16.1566 4.84285 14.1217 4 12 4C9.87827 4 7.84344 4.84285 6.34315 6.34315C4.84285 7.84344 4 9.87827 4 12C4 14.1217 4.84285 16.1566 6.34315 17.6569C7.84344 19.1571 9.87827 20 12 20ZM11 7H13V9H11V7ZM11 11H13V17H11V11Z"></path>
</g>
<defs>
<clipPath id="clip0_4647_8881">
<rect width="24" height="24"></rect>
</clipPath>
</defs>

</symbol>
<symbol viewBox="0 0 20 20" id="layout-right">
<path d="M13.3333 17.5H5C3.61929 17.5 2.5 16.3807 2.5 15V5C2.5 3.61929 3.61929 2.5 5 2.5H13.3333M13.3333 17.5H15C16.3807 17.5 17.5 16.3807 17.5 15V5C17.5 3.61929 16.3807 2.5 15 2.5H13.3333M13.3333 17.5V2.5" stroke="white" stroke-width="1.66667" stroke-linecap="round" stroke-linejoin="round"></path>
</symbol>
<symbol viewBox="0 0 60 60" id="lg-bookmark">
  <path d="M10 12.5C10 8.35786 13.3579 5 17.5 5H42.5C46.6421 5 50 8.35786 50 12.5V45C50 51.1803 42.9443 54.7082 38 51L30 45L22 51C17.0557 54.7082 10 51.1803 10 45V12.5Z"></path>
  <path d="M20 17.5C20 16.1193 21.1193 15 22.5 15H37.5C38.8807 15 40 16.1193 40 17.5C40 18.8807 38.8807 20 37.5 20H22.5C21.1193 20 20 18.8807 20 17.5Z" fill-rule="evenodd" clip-rule="evenodd"></path>

</symbol>
<symbol viewBox="0 0 60 60" id="lg-document">
  <path d="M7.68494 12.8082C7.68494 8.56391 11.1256 5.12325 15.3699 5.12325H40.3647C42.4029 5.12325 44.3576 5.93291 45.7988 7.37412L51.5437 13.119C52.9849 14.5602 53.7945 16.5149 53.7945 18.553V48.6712C53.7945 52.9155 50.3539 56.3561 46.1096 56.3561H15.3699C11.1256 56.3561 7.68494 52.9155 7.68494 48.6712V12.8082Z"></path>
  <path d="M17.9315 28.1782C17.9315 26.7634 19.0784 25.6165 20.4932 25.6165H40.9863C42.4011 25.6165 43.548 26.7634 43.548 28.1782C43.548 29.5929 42.4011 30.7398 40.9863 30.7398H20.4932C19.0784 30.7398 17.9315 29.5929 17.9315 28.1782Z" fill-rule="evenodd" clip-rule="evenodd"></path>
  <path d="M17.9315 38.4246C17.9315 37.0099 19.0784 35.863 20.4932 35.863H30.7397C32.1545 35.863 33.3014 37.0099 33.3014 38.4246C33.3014 39.8394 32.1545 40.9863 30.7397 40.9863H20.4932C19.0784 40.9863 17.9315 39.8394 17.9315 38.4246Z" fill-rule="evenodd" clip-rule="evenodd"></path>
  <path d="M45.3593 6.93461L51.9831 13.5585C53.1429 14.7183 53.7945 16.2913 53.7945 17.9315H46.1096C43.28 17.9315 40.9863 15.6377 40.9863 12.8082V5.12325C42.6265 5.12325 44.1995 5.77482 45.3593 6.93461Z"></path>

</symbol>
<symbol viewBox="0 0 24 24" id="link">
    <path d="M10 7C10 7.55229 9.55229 8 9 8H6C3.79086 8 2 9.79086 2 12C2 14.2091 3.79086 16 6 16H9C9.55229 16 10 16.4477 10 17C10 17.5523 9.55229 18 9 18H6C2.68629 18 0 15.3137 0 12C0 8.68629 2.68629 6 6 6H9C9.55229 6 10 6.44772 10 7Z"></path>
    <path d="M15 8C14.4477 8 14 7.55229 14 7C14 6.44772 14.4477 6 15 6H18C21.3137 6 24 8.68629 24 12C24 15.3137 21.3137 18 18 18H15C14.4477 18 14 17.5523 14 17C14 16.4477 14.4477 16 15 16H18C20.2091 16 22 14.2091 22 12C22 9.79086 20.2091 8 18 8H15Z"></path>
    <path d="M18 12C18 12.5523 17.5523 13 17 13H7C6.44772 13 6 12.5523 6 12C6 11.4477 6.44772 11 7 11H17C17.5523 11 18 11.4477 18 12Z"></path>
</symbol>
<symbol viewBox="0 0 16 18" id="log-out">
<path d="M9 5.5V4C9 2.34315 7.65685 1 6 1H4C2.34315 1 1 2.34315 1 4V14C1 15.6569 2.34315 17 4 17H6C7.65685 17 9 15.6569 9 14V12.5M7 9H15M15 9L12.5 6.5M15 9L12.5 11.5" stroke="currentColor" stroke-width="1.5" stroke-linecap="round" stroke-linejoin="round"></path>

</symbol>
<symbol viewBox="0 0 20 20" id="message-square">
<path d="M15.8333 2.5H4.16667C3.24619 2.5 2.5 3.24289 2.5 4.15929V17.0844C2.5 17.4765 2.99598 17.6497 3.24203 17.3435L5.58313 14.4301C5.74127 14.2333 5.9807 14.1187 6.23385 14.1187H15.8333C16.7538 14.1187 17.5 13.3758 17.5 12.4594V4.15929C17.5 3.24289 16.7538 2.5 15.8333 2.5Z" stroke="white" stroke-width="1.66667"></path>

</symbol>
<symbol viewBox="0 0 12 18" id="microphone">
<path d="M9 3.75037V9.00037C9 10.6572 7.65685 12.0004 6 12.0004C4.34315 12.0004 3 10.6572 3 9.00037V3.75037C3 2.09351 4.34315 0.750366 6 0.750366C7.65685 0.750366 9 2.09351 9 3.75037Z"></path>
<path d="M1.5 9.00037C1.5 8.58615 1.16421 8.25037 0.75 8.25037C0.335786 8.25037 0 8.58615 0 9.00037C0 12.0601 2.29027 14.5849 5.25 14.9539V15.7504H3C2.58579 15.7504 2.25 16.0862 2.25 16.5004C2.25 16.9146 2.58579 17.2504 3 17.2504H9C9.41421 17.2504 9.75 16.9146 9.75 16.5004C9.75 16.0862 9.41421 15.7504 9 15.7504H6.75V14.9539C9.70973 14.5849 12 12.0601 12 9.00037C12 8.58615 11.6642 8.25037 11.25 8.25037C10.8358 8.25037 10.5 8.58615 10.5 9.00037C10.5 11.4856 8.48528 13.5004 6 13.5004C3.51472 13.5004 1.5 11.4856 1.5 9.00037Z"></path>
</symbol>
<symbol viewBox="0 0 16 18" id="moon">
<path d="M8.52154 16.5C4.50558 16.5 1.25 13.1421 1.25 9C1.25 4.85786 4.50558 1.5 8.52154 1.5C9.18675 1.5 9.83111 1.59213 10.4433 1.7647C8.06709 2.51928 6.34008 4.80162 6.34008 7.5C6.34008 10.8137 8.94454 13.5 12.1573 13.5C13.0889 13.5 13.9694 13.2741 14.75 12.8726C13.4767 15.0466 11.1637 16.5 8.52154 16.5Z" stroke="currentColor" stroke-width="1.5" stroke-linecap="round" stroke-linejoin="round"></path>

</symbol>
<symbol viewBox="0 0 15 15" id="plus">
  <path d="M6.74996 13.5C6.74996 13.9142 7.08581 14.25 7.49996 14.25C7.91419 14.25 8.24996 13.9142 8.24996 13.5V8.24992H13.5C13.9142 8.24992 14.25 7.91415 14.25 7.49992C14.25 7.0857 13.9142 6.74992 13.5 6.74992H8.24996V1.5C8.24996 1.08579 7.91419 0.75 7.49996 0.75C7.08581 0.75 6.74996 1.08579 6.74996 1.5V6.74992H1.5C1.08579 6.74992 0.75 7.0857 0.75 7.49992C0.75 7.91415 1.08579 8.24992 1.5 8.24992H6.74996V13.5Z" fill-rule="evenodd" clip-rule="evenodd"></path>

</symbol>
<symbol viewBox="0 0 19 19" id="push-pin-slash">
<path fill-rule="evenodd" clip-rule="evenodd" d="M6.13663 6.30923L1.0402 7.69916C0.4229 7.86752 0.217767 8.63993 0.670208 9.09235L4.36887 12.791L0.244075 16.9158C-0.0813583 17.2413 -0.0813583 17.7689 0.244075 18.0943C0.569508 18.4198 1.09715 18.4198 1.42258 18.0943L5.54737 13.9695L9.24603 17.6682C9.69844 18.1207 10.4709 17.9155 10.6393 17.2982L12.0292 12.2018L16.7432 7.48774L17.0379 7.78236C17.2006 7.94509 17.4644 7.94509 17.6271 7.78236L18.2164 7.19311C18.3791 7.03039 18.3791 6.76657 18.2164 6.60385L11.7345 0.122039C11.5719 -0.0406797 11.308 -0.0406797 11.1453 0.122039L10.556 0.711295C10.3934 0.874012 10.3934 1.13783 10.556 1.30055L10.8507 1.59518L6.13663 6.30923ZM10.4213 11.7633C10.4975 11.4834 10.6456 11.2283 10.8507 11.0233L15.5647 6.30923L12.0292 2.77369L7.31511 7.48774C7.11002 7.69283 6.85498 7.84085 6.57516 7.91716L2.86412 8.92926L9.40911 15.4743L10.4213 11.7633Z"></path>
<path d="M2.37988 1.9585L16.3799 15.9585" stroke="white" stroke-width="1.5" stroke-linecap="round"></path>

</symbol>
<symbol viewBox="0 0 19 19" id="push-pin">
<path fill-rule="evenodd" clip-rule="evenodd" d="M6.61002 6.49722L1.51359 7.88715C0.896289 8.05551 0.691155 8.82792 1.1436 9.28033L4.84225 12.979L0.717464 17.1038C0.39203 17.4292 0.39203 17.9569 0.717464 18.2823C1.0429 18.6078 1.57054 18.6078 1.89597 18.2823L6.02076 14.1575L9.71941 17.8562C10.1718 18.3087 10.9442 18.1035 11.1127 17.4862L12.5026 12.3897L17.2166 7.67572L17.5112 7.97035C17.674 8.13307 17.9377 8.13307 18.1005 7.97035L18.6897 7.3811C18.8525 7.21837 18.8525 6.95456 18.6897 6.79184L12.2079 0.310028C12.0452 0.147309 11.7814 0.147309 11.6187 0.310027L11.0294 0.899284C10.8667 1.062 10.8667 1.32582 11.0294 1.48854L11.3241 1.78317L6.61002 6.49722ZM10.8947 11.9512C10.9709 11.6714 11.119 11.4163 11.3241 11.2112L16.0381 6.49722L12.5026 2.96168L7.7885 7.67572C7.58341 7.88082 7.32837 8.02884 7.04855 8.10515L3.33751 9.11725L9.8825 15.6623L10.8947 11.9512Z"></path>

</symbol>
<symbol viewBox="0 0 16 17" id="robot">
<path fill-rule="evenodd" clip-rule="evenodd" d="M7.2 3.49121V5.3H6.4C3.8632 5.3 1.7208 6.9864 1.032 9.3H0V12.5H1.032C1.7208 14.8136 3.8632 16.5 6.4 16.5C7.4464 16.5 8.5536 16.5 9.6 16.5C12.1368 16.5 14.2792 14.8136 14.968 12.5H16V9.3H14.968C14.2792 6.9864 12.1368 5.3 9.6 5.3H8.8V3.496C9.2824 3.2192 9.6072 2.6992 9.6072 2.104C9.6072 1.2184 8.8888 0.5 8.004 0.5C7.1184 0.5 6.4 1.2184 6.4 2.104C6.4 2.696 6.7216 3.21361 7.2 3.49121ZM2.4 10.9C2.4 8.6912 4.1912 6.9 6.4 6.9C7.4464 6.9 8.5536 6.9 9.6 6.9C11.8088 6.9 13.6 8.6912 13.6 10.9C13.6 10.9032 13.6 10.9072 13.6 10.9104C13.6 13.1088 11.8088 14.9 9.6 14.9C8.5536 14.9 7.4464 14.9 6.4 14.9C4.1912 14.9 2.4 13.1088 2.4 10.9ZM9.6 10.1V11.7H11.2V10.1H9.6ZM4.8 10.1V11.7H6.4V10.1H4.8Z"></path>
</symbol>
<symbol viewBox="0 0 15 15" id="search">
  <path d="M10 6.5C10 8.433 8.433 10 6.5 10C4.567 10 3 8.433 3 6.5C3 4.567 4.567 3 6.5 3C8.433 3 10 4.567 10 6.5ZM9.30884 10.0159C8.53901 10.6318 7.56251 11 6.5 11C4.01472 11 2 8.98528 2 6.5C2 4.01472 4.01472 2 6.5 2C8.98528 2 11 4.01472 11 6.5C11 7.56251 10.6318 8.53901 10.0159 9.30884L12.8536 12.1464C13.0488 12.3417 13.0488 12.6583 12.8536 12.8536C12.6583 13.0488 12.3417 13.0488 12.1464 12.8536L9.30884 10.0159Z" fill-rule="evenodd" clip-rule="evenodd">
  </path>

</symbol>
<symbol viewBox="0 0 16 16" id="send-solid">
<path d="M14.6585 8.66961C15.2114 8.39324 15.2113 7.60439 14.6585 7.32801L1.18359 0.591393C0.577179 0.28822 -0.0883188 0.88138 0.143371 1.51854L1.80986 6.1014C1.90532 6.3639 2.13873 6.55161 2.41559 6.58851L13.0002 7.99964L2.41558 9.41106C2.13872 9.44804 1.90532 9.63569 1.80987 9.89819L0.143469 14.4808C-0.0882364 15.118 0.577336 15.7111 1.18376 15.4079L14.6585 8.66961Z"></path>

</symbol>
<symbol viewBox="0 0 15 15" id="send">
  <path d="M1.41072 1.92668L3.4483 6.76594C3.5789 7.07613 3.5789 7.42589 3.4483 7.73608L1.41072 12.5753L13.1803 7.25101L1.41072 1.92668ZM0.942269 1.02879L14.0673 6.96629C14.3122 7.07709 14.3122 7.42493 14.0673 7.53573L0.942269 13.4732C0.683365 13.5904 0.415184 13.3291 0.525455 13.0672L2.87227 7.49354C2.93758 7.33845 2.93758 7.16357 2.87227 7.00847L0.525455 1.43478C0.415184 1.17288 0.683365 0.911664 0.942269 1.02879Z" stroke="currentColor" stroke-width="0.5"></path>
  <path d="M3.00098 7.56351V6.93851H13.3135V7.56351H3.00098Z" stroke="currentColor" stroke-width="0.5"></path>

</symbol>
<symbol viewBox="0 0 15 15" id="sidebar">
  <path d="M5.72962 1.875H9.77037C10.4671 1.87499 11.029 1.87499 11.4841 1.91217C11.9527 1.95045 12.3642 2.03133 12.745 2.22534C13.3498 2.5335 13.8415 3.02523 14.1496 3.63003C14.3437 4.01079 14.4245 4.42234 14.4628 4.89089C14.5 5.34595 14.5 5.90789 14.5 6.60463V8.7168C14.5 9.41353 14.5 9.97551 14.4628 10.4305C14.4245 10.8991 14.3437 11.3107 14.1496 11.6914C13.8415 12.2962 13.3498 12.7879 12.745 13.0961C12.3642 13.2901 11.9527 13.371 11.4841 13.4093C11.0291 13.4464 10.4671 13.4464 9.77037 13.4464H5.72961C5.03289 13.4464 4.47095 13.4464 4.01589 13.4093C3.54734 13.371 3.13579 13.2901 2.75503 13.0961C2.15023 12.7879 1.6585 12.2962 1.35034 11.6914C1.15633 11.3107 1.07545 10.8991 1.03717 10.4305C0.999987 9.97545 0.999994 9.41353 1 8.7168V6.60463C0.999994 5.90791 0.999987 5.34595 1.03717 4.89089C1.07545 4.42234 1.15633 4.01079 1.35034 3.63003C1.6585 3.02523 2.15023 2.5335 2.75503 2.22534C3.13579 2.03133 3.54734 1.95045 4.01589 1.91217C4.47095 1.87499 5.03291 1.87499 5.72962 1.875ZM4.12058 3.19362C3.73155 3.2254 3.50803 3.28465 3.33873 3.37092C2.97585 3.55581 2.68081 3.85085 2.49592 4.21373C2.40965 4.38303 2.3504 4.60655 2.31862 4.99558C2.28622 5.39212 2.28571 5.90146 2.28571 6.63214V8.68929C2.28571 9.41996 2.28622 9.92929 2.31862 10.3259C2.3504 10.7149 2.40965 10.9384 2.49592 11.1077C2.68081 11.4706 2.97585 11.7656 3.33873 11.9505C3.50803 12.0368 3.73155 12.096 4.12058 12.1278C4.51712 12.1602 5.02646 12.1607 5.75714 12.1607H6.14286V3.16071H5.75714C5.02646 3.16071 4.51712 3.16122 4.12058 3.19362ZM7.42857 3.16071V12.1607H9.74286C10.4735 12.1607 10.9829 12.1602 11.3794 12.1278C11.7684 12.096 11.992 12.0368 12.1613 11.9505C12.5242 11.7656 12.8192 11.4706 13.0041 11.1077C13.0903 10.9384 13.1496 10.7149 13.1814 10.3259C13.2138 9.92929 13.2143 9.41996 13.2143 8.68929V6.63214C13.2143 5.90146 13.2138 5.39212 13.1814 4.99558C13.1496 4.60655 13.0903 4.38303 13.0041 4.21373C12.8192 3.85085 12.5242 3.55581 12.1613 3.37092C11.992 3.28465 11.7684 3.2254 11.3794 3.19362C10.9829 3.16122 10.4735 3.16071 9.74286 3.16071H7.42857ZM3.25 5.41071C3.25 5.05568 3.53782 4.76786 3.89286 4.76786H4.53571C4.89076 4.76786 5.17857 5.05568 5.17857 5.41071C5.17857 5.76576 4.89076 6.05357 4.53571 6.05357H3.89286C3.53782 6.05357 3.25 5.76576 3.25 5.41071ZM3.25 7.66071C3.25 7.30566 3.53782 7.01786 3.89286 7.01786H4.53571C4.89076 7.01786 5.17857 7.30566 5.17857 7.66071C5.17857 8.01576 4.89076 8.30357 4.53571 8.30357H3.89286C3.53782 8.30357 3.25 8.01576 3.25 7.66071Z" fill-rule="evenodd" clip-rule="evenodd"></path>

</symbol>
<symbol viewBox="0 0 24 24" id="small-caret-left">
  <path d="M14.0088 8.41426L10.423 12.0001L14.0088 15.5858C14.3993 15.9764 14.3993 16.6095 14.0088 17.0001C13.6183 17.3906 12.9851 17.3906 12.5946 17.0001L8.30168 12.7072C8.11415 12.5196 8.00879 12.2653 8.00879 12.0001C8.00879 11.7348 8.11415 11.4805 8.30168 11.2929L12.5946 7.00005C12.9851 6.60952 13.6183 6.60952 14.0088 7.00005C14.3993 7.39057 14.3993 8.02374 14.0088 8.41426Z"></path>
</symbol>
<symbol viewBox="0 0 18 18" id="square-check">
<path d="M5.25 9.41667L7.75 11.9167L12.75 6.91667M14 1.5H4C2.61929 1.5 1.5 2.61929 1.5 4V14C1.5 15.3807 2.61929 16.5 4 16.5H14C15.3807 16.5 16.5 15.3807 16.5 14V4C16.5 2.61929 15.3807 1.5 14 1.5Z" stroke="currentColor" stroke-width="2" stroke-linecap="round" stroke-linejoin="round"></path>
</symbol>
<symbol viewBox="0 0 15 15" id="submit">
  <path fill-rule="evenodd" clip-rule="evenodd" d="M6.47756 0.33474C6.92386 -0.11158 7.64756 -0.11158 8.09386 0.33474L13.2367 5.47759C13.683 5.92389 13.683 6.64749 13.2367 7.09379C12.7904 7.54019 12.0668 7.54019 11.6205 7.09379L8.42856 3.90199V13.7143C8.42856 14.3455 7.91686 14.8572 7.28566 14.8572C6.65456 14.8572 6.14286 14.3455 6.14286 13.7143V3.90199L2.95096 7.09379C2.50466 7.54019 1.78106 7.54019 1.33476 7.09379C0.888413 6.64749 0.888413 5.92389 1.33476 5.47759L6.47756 0.33474Z"></path>

</symbol>
<symbol viewBox="0 0 18 19" id="trash">
<path d="M7.33329 8.33375C7.79354 8.33375 8.16663 8.70685 8.16663 9.1671V13.3338C8.16663 13.794 7.79354 14.1671 7.33329 14.1671C6.87306 14.1671 6.49996 13.794 6.49996 13.3338V9.1671C6.49996 8.70685 6.87306 8.33375 7.33329 8.33375Z"></path>
<path d="M10.6666 8.33375C11.1269 8.33375 11.5 8.70685 11.5 9.1671V13.3338C11.5 13.794 11.1269 14.1671 10.6666 14.1671C10.2064 14.1671 9.83329 13.794 9.83329 13.3338V9.1671C9.83329 8.70685 10.2064 8.33375 10.6666 8.33375Z"></path>
<path fill-rule="evenodd" clip-rule="evenodd" d="M6.49996 0.83374C5.57948 0.83374 4.83329 1.57993 4.83329 2.50041V4.16708H1.49996C1.03973 4.16708 0.666626 4.54017 0.666626 5.00041C0.666626 5.46064 1.03973 5.83374 1.49996 5.83374H2.43133L3.07434 16.7649C3.12617 17.6459 3.85568 18.3338 4.73813 18.3338H13.2618C14.1442 18.3338 14.8738 17.6459 14.9255 16.7649L15.5686 5.83374H16.5C16.9602 5.83374 17.3333 5.46064 17.3333 5.00041C17.3333 4.54017 16.9602 4.16708 16.5 4.16708H13.1666V2.50041C13.1666 1.57993 12.4205 0.83374 11.5 0.83374H6.49996ZM4.10088 5.83374L4.73813 16.6671H13.2618L13.899 5.83374H4.10088ZM6.49996 2.50041H11.5V4.16708H6.49996V2.50041Z"></path>
</symbol>
<symbol viewBox="0 0 16 16" id="triple-dots">
<path d="M8.00016 8.66695C7.63197 8.66695 7.3335 8.36847 7.3335 8.00028C7.3335 7.6321 7.63197 7.33362 8.00016 7.33362C8.36835 7.33362 8.66683 7.6321 8.66683 8.00028C8.66683 8.36847 8.36835 8.66695 8.00016 8.66695Z" stroke="white" stroke-width="1.33333"></path>
<path d="M8.00016 4.66695C7.63197 4.66695 7.3335 4.36847 7.3335 4.00028C7.3335 3.63209 7.63197 3.33362 8.00016 3.33362C8.36835 3.33362 8.66683 3.63209 8.66683 4.00028C8.66683 4.36847 8.36835 4.66695 8.00016 4.66695Z" stroke="white" stroke-width="1.33333"></path>
<path d="M8.00016 12.667C7.63197 12.667 7.3335 12.3685 7.3335 12.0003C7.3335 11.6321 7.63197 11.3336 8.00016 11.3336C8.36835 11.3336 8.66683 11.6321 8.66683 12.0003C8.66683 12.3685 8.36835 12.667 8.00016 12.667Z" stroke="white" stroke-width="1.33333"></path>

</symbol>
<symbol viewBox="0 0 58 58" id="upload-placeholder">
<path d="M21.1001 26.584H19.6766C15.9107 26.584 12.6684 28.5355 11.9298 31.2465L9.82309 38.9798C8.84538 42.5688 12.5845 45.9173 17.5699 45.9173H40.4308C45.4162 45.9173 49.1553 42.5688 48.1776 38.9798L46.0708 31.2465C45.3323 28.5355 42.0899 26.584 38.3241 26.584H36.9005M28.9993 31.4173V12.084M28.9993 12.084L22.4159 18.1257M28.9993 12.084L35.5828 18.1257" stroke="currentColor" stroke-width="4.83333" stroke-linecap="round" stroke-linejoin="round"></path>
</symbol>
<symbol viewBox="0 0 24 24" id="user-list-icon-closed">
<path d="M13.2841 11.2683L10.2557 14.0768C9.83645 14.4655 9.81175 15.1206 10.2005 15.5398L10.2005 15.5398C10.5893 15.9591 11.2443 15.9837 11.6636 15.595L14.6921 12.7866C15.1113 12.3978 15.136 11.7427 14.7472 11.3235C14.3584 10.9043 13.7034 10.8796 13.2841 11.2683Z"></path>
<path d="M10.1929 9.93224L13.332 12.647C13.762 13.0188 14.412 12.9717 14.7839 12.5417C15.1557 12.1117 15.1086 11.4617 14.6786 11.0898L11.5395 8.37511C11.1095 8.00325 10.4595 8.05038 10.0876 8.48037C9.71576 8.91036 9.76289 9.56039 10.1929 9.93224Z"></path>
<path d="M6.725 1.14505L17.2748 1.13471C17.7092 1.13471 18.1436 1.17608 18.5677 1.25883C18.9917 1.35191 19.4055 1.47603 19.8088 1.64152C20.2122 1.807 20.5949 2.01386 20.9569 2.25175C21.3189 2.49998 21.6499 2.77924 21.9602 3.07919C22.2704 3.38947 22.5394 3.73079 22.7773 4.09279C23.0255 4.4548 23.222 4.83748 23.3978 5.24086C23.5633 5.64423 23.6874 6.05795 23.7702 6.48201C23.8529 6.90607 23.8943 7.34048 23.8943 7.77488L23.8943 16.2147C23.8943 16.6491 23.8529 17.0732 23.7702 17.5076C23.6874 17.9317 23.5633 18.3454 23.3978 18.7487C23.222 19.1521 23.0255 19.5348 22.7772 19.8968C22.5394 20.2588 22.2704 20.6001 21.9602 20.9104C21.6499 21.2104 21.3189 21.4896 20.9569 21.7275C20.5949 21.9757 20.2122 22.1826 19.8088 22.3481C19.4055 22.5136 18.9917 22.6377 18.5677 22.7204C18.1436 22.8135 17.7092 22.8549 17.2748 22.8549L6.725 22.8652C6.2906 22.8652 5.8562 22.8239 5.43213 22.7411C5.00807 22.6584 4.59436 22.5239 4.19098 22.3584C3.78761 22.1929 3.40492 21.9861 3.04292 21.7482C2.69126 21.5 2.34994 21.231 2.04999 20.9208C1.7397 20.6105 1.46045 20.2795 1.22256 19.9175C0.984669 19.5555 0.777811 19.1728 0.612324 18.7694C0.446837 18.3661 0.31238 17.9523 0.229636 17.5179C0.146893 17.0939 0.105521 16.6595 0.105521 16.2251L0.105522 7.79557C0.105522 7.35082 0.146894 6.92676 0.229637 6.5027C0.312381 6.06829 0.446838 5.65458 0.612325 5.2512C0.777813 4.84783 0.98467 4.46514 1.22256 4.10314C1.46045 3.74113 1.73971 3.41016 2.04999 3.09987C2.34994 2.78958 2.69126 2.52066 3.04292 2.27243C3.40492 2.03455 3.78761 1.82769 4.19098 1.6622C4.59436 1.49671 5.00808 1.36226 5.43214 1.27951C5.8562 1.19677 6.2906 1.14505 6.725 1.14505ZM17.2748 20.6932C17.5747 20.6932 17.8644 20.6622 18.154 20.6001C18.4332 20.5484 18.7125 20.4657 18.9917 20.3519C19.2606 20.2381 19.5192 20.0933 19.7571 19.9382C20.0053 19.7727 20.2329 19.5865 20.4397 19.3797C20.6466 19.1728 20.8328 18.9453 20.9879 18.697C21.1534 18.4488 21.2879 18.2006 21.4016 17.9213C21.5154 17.6524 21.5982 17.3731 21.6602 17.0835C21.7119 16.7939 21.743 16.5043 21.743 16.2147L21.743 7.77488C21.743 7.48528 21.7119 7.19568 21.6602 6.90607C21.5982 6.61647 21.5154 6.33721 21.4016 6.0683C21.2879 5.78904 21.1534 5.53046 20.9879 5.29258C20.8328 5.04434 20.6466 4.8168 20.4397 4.60994C20.2329 4.40308 20.0053 4.21691 19.7571 4.05142C19.5192 3.88593 19.2607 3.75148 18.9917 3.6377C18.7125 3.52393 18.4332 3.44119 18.154 3.38947C17.8644 3.32741 17.5748 3.29639 17.2748 3.29639L6.725 3.30673C6.4354 3.30673 6.13546 3.3481 5.8562 3.39981C5.56659 3.46187 5.28734 3.54462 5.01842 3.65839C4.7495 3.77216 4.49093 3.90662 4.2427 4.07211C4.00481 4.23759 3.77727 4.42377 3.57041 4.63063C3.36355 4.83748 3.17737 5.06503 3.01189 5.30292C2.8464 5.55115 2.71194 5.80972 2.59817 6.07864C2.4844 6.34755 2.40165 6.62681 2.34994 6.91642C2.28788 7.20602 2.25685 7.49562 2.25685 7.79557L2.25685 16.2251C2.25685 16.5147 2.28788 16.8146 2.34994 17.1042C2.40165 17.3938 2.4844 17.6731 2.59817 17.942C2.71194 18.2109 2.8464 18.4695 3.01189 18.7177C3.17737 18.9556 3.36355 19.1831 3.57041 19.39C3.77726 19.5969 4.00481 19.783 4.2427 19.9485C4.49093 20.114 4.7495 20.2485 5.01842 20.3622C5.28733 20.476 5.56659 20.5588 5.8562 20.6208C6.13545 20.6725 6.4354 20.7036 6.725 20.7036L17.2748 20.6932Z"></path>
<path fill-rule="evenodd" clip-rule="evenodd" d="M18.7229 21.8206L16.6129 21.8206L16.5509 2.25171L18.6712 2.25171L18.7229 21.8206Z"></path>

</symbol>
<symbol viewBox="0 0 24 24" id="user-list-icon">
<path d="M10.7156 12.7317L13.7441 9.92325C14.1633 9.53447 14.188 8.87944 13.7992 8.46019L13.7992 8.46019C13.4104 8.04095 12.7554 8.01625 12.3362 8.40503L9.3077 11.2134C8.88846 11.6022 8.86377 12.2573 9.25255 12.6765C9.64133 13.0958 10.2964 13.1204 10.7156 12.7317Z"></path>
<path d="M13.807 14.0678L10.6678 11.353C10.2379 10.9812 9.58784 11.0283 9.21598 11.4583C8.84413 11.8883 8.89126 12.5383 9.32125 12.9102L12.4604 15.6249C12.8904 15.9967 13.5404 15.9496 13.9123 15.5196C14.2841 15.0896 14.237 14.4396 13.807 14.0678Z"></path>
<path d="M17.2749 22.8549L6.72507 22.8653C6.29067 22.8653 5.85627 22.8239 5.43221 22.7412C5.00815 22.6481 4.59443 22.524 4.19105 22.3585C3.78768 22.193 3.40499 21.9861 3.04299 21.7483C2.68098 21.5 2.35001 21.2208 2.03972 20.9208C1.72943 20.6105 1.46052 20.2692 1.22263 19.9072C0.974398 19.5452 0.777882 19.1625 0.602052 18.7591C0.436565 18.3558 0.31245 17.942 0.229706 17.518C0.146962 17.0939 0.105591 16.6595 0.105591 16.2251V7.78528C0.105591 7.35087 0.146962 6.92681 0.229706 6.49241C0.31245 6.06835 0.436565 5.65463 0.602052 5.25126C0.777882 4.84788 0.974398 4.46519 1.22263 4.10319C1.46052 3.74119 1.72943 3.39987 2.03972 3.08958C2.35001 2.78964 2.68098 2.51038 3.04299 2.27249C3.40499 2.02426 3.78768 1.8174 4.19105 1.65191C4.59443 1.48643 5.00815 1.36231 5.43221 1.27957C5.85627 1.18648 6.29067 1.14511 6.72507 1.14511L17.2749 1.13477C17.7093 1.13477 18.1437 1.17614 18.5677 1.25888C18.9918 1.34162 19.4055 1.47608 19.8089 1.64157C20.2123 1.80706 20.595 2.01392 20.957 2.2518C21.3086 2.50003 21.6499 2.76895 21.9499 3.07924C22.2602 3.38953 22.5394 3.7205 22.7773 4.0825C23.0152 4.44451 23.2221 4.8272 23.3876 5.23057C23.553 5.63395 23.6875 6.04766 23.7702 6.48207C23.853 6.90613 23.8944 7.34053 23.8944 7.77493V16.2044C23.8944 16.6492 23.853 17.0732 23.7702 17.4973C23.6875 17.9317 23.553 18.3454 23.3876 18.7488C23.2221 19.1522 23.0152 19.5349 22.7773 19.8969C22.5394 20.2589 22.2602 20.5898 21.9499 20.9001C21.6499 21.2104 21.3086 21.4793 20.957 21.7276C20.595 21.9655 20.2123 22.1723 19.8089 22.3378C19.4055 22.5033 18.9918 22.6377 18.5677 22.7205C18.1437 22.8032 17.7093 22.8549 17.2749 22.8549ZM6.72507 3.30678C6.42513 3.30678 6.13553 3.33781 5.84592 3.39987C5.56666 3.45158 5.2874 3.53433 5.00815 3.6481C4.73923 3.76187 4.48066 3.90667 4.24277 4.06182C3.99454 4.22731 3.76699 4.41348 3.56013 4.62034C3.35327 4.8272 3.1671 5.05474 3.01196 5.30297C2.84647 5.5512 2.71201 5.79943 2.59824 6.07869C2.48447 6.34761 2.40172 6.62687 2.33967 6.91647C2.28795 7.20607 2.25692 7.49568 2.25692 7.78528V16.2251C2.25692 16.5147 2.28795 16.8043 2.33967 17.0939C2.40172 17.3835 2.48447 17.6628 2.59824 17.9317C2.71201 18.211 2.84647 18.4695 3.01196 18.7074C3.1671 18.9557 3.35327 19.1832 3.56013 19.3901C3.76699 19.5969 3.99454 19.7831 4.24277 19.9486C4.48066 20.1141 4.73923 20.2485 5.00815 20.3623C5.2874 20.4761 5.56666 20.5588 5.84592 20.6105C6.13553 20.6726 6.42513 20.7036 6.72507 20.7036L17.2749 20.6933C17.5645 20.6933 17.8644 20.6519 18.1437 20.6002C18.4333 20.5381 18.7125 20.4554 18.9815 20.3416C19.2504 20.2278 19.509 20.0934 19.7572 19.9279C19.9951 19.7624 20.2226 19.5762 20.4295 19.3694C20.6363 19.1625 20.8225 18.935 20.988 18.6971C21.1535 18.4489 21.2879 18.1903 21.4017 17.9214C21.5155 17.6524 21.5982 17.3732 21.6499 17.0836C21.712 16.794 21.743 16.5044 21.743 16.2044V7.77493C21.743 7.48533 21.712 7.18539 21.6499 6.89578C21.5982 6.60618 21.5155 6.32692 21.4017 6.05801C21.2879 5.78909 21.1535 5.53052 20.988 5.28229C20.8225 5.0444 20.6363 4.81685 20.4295 4.60999C20.2226 4.40314 19.9951 4.21696 19.7572 4.05148C19.509 3.88599 19.2504 3.75153 18.9815 3.63776C18.7125 3.52399 18.4333 3.44124 18.1437 3.37918C17.8644 3.32747 17.5645 3.29644 17.2749 3.29644L6.72507 3.30678Z"></path>
<path fill-rule="evenodd" clip-rule="evenodd" d="M5.27698 2.17944H7.38694L7.449 21.7483H5.32869L5.27698 2.17944Z"></path>

</symbol>
<symbol viewBox="0 0 12 15" id="user">
<path d="M7.5 9H4.5C2.42893 9 0.75 10.6789 0.75 12.75V13.5C0.75 13.9142 1.08579 14.25 1.5 14.25H10.5C10.9142 14.25 11.25 13.9142 11.25 13.5V12.75C11.25 10.6789 9.57107 9 7.5 9Z" stroke="currentColor" stroke-width="1.5"></path>
<path d="M6 6.75C7.65685 6.75 9 5.40685 9 3.75C9 2.09315 7.65685 0.75 6 0.75C4.34315 0.75 3 2.09315 3 3.75C3 5.40685 4.34315 6.75 6 6.75Z" stroke="currentColor" stroke-width="1.5"></path>

</symbol>
<symbol viewBox="0 0 15 15" id="voice-filled">
  <path d="M7.60922 9.51087H7.39066C5.88854 9.51087 4.67099 8.30794 4.67099 6.82521V3.93566C4.67099 2.45233 5.88854 1.25 7.39066 1.25H7.60922C9.11134 1.25 10.3295 2.45233 10.3295 3.93566V6.82521C10.3295 8.30794 9.11134 9.51087 7.60922 9.51087ZM11.6016 6.73929C11.6016 6.40866 11.8728 6.14141 12.2071 6.14141C12.5413 6.14141 12.8125 6.40866 12.8125 6.73929C12.8125 9.42914 10.7503 11.6503 8.10575 11.9486V13.1521C8.10575 13.4822 7.83451 13.75 7.5003 13.75C7.16549 13.75 6.89486 13.4822 6.89486 13.1521V11.9486C4.24965 11.6503 2.1875 9.42914 2.1875 6.73929C2.1875 6.40866 2.45874 6.14141 2.79295 6.14141C3.12715 6.14141 3.3984 6.40866 3.3984 6.73929C3.3984 8.97236 5.23835 10.7893 7.5003 10.7893C9.76165 10.7893 11.6016 8.97236 11.6016 6.73929Z" fill-rule="evenodd" clip-rule="evenodd"></path>

</symbol>
</defs>
</svg>