<svg width="64" height="64" viewBox="0 0 64 64" fill="none" xmlns="http://www.w3.org/2000/svg">
<path d="M40.3762 8.00433C40.3762 8.00433 40.1908 8.00433 40.0981 8.00433H20.7997C19.4835 8.00433 18.4083 9.05768 18.4083 10.3471V15.5594C18.4083 18.1383 16.2763 20.2086 13.6624 20.2086H8.34194C7.02572 20.2086 5.9505 21.262 5.9505 22.5514V29.2348C5.9505 30.5242 7.02572 31.5775 8.34194 31.5775H15.164C16.4803 31.5775 17.5555 30.5242 17.5555 29.2348V24.0225C17.5555 21.4436 19.6874 19.3732 22.3013 19.3732H41.5997C44.2321 19.3732 46.3455 21.4618 46.3455 24.0225V27.7637C46.3455 30.3426 44.2136 32.413 41.5997 32.413H20.7997C19.4835 32.413 17.4813 34.4107 17.4813 34.4107L7.47064 44.2359C5.9505 45.598 5.9505 45.6888 5.9505 46.9782V53.6615C5.9505 54.951 7.02572 56.0043 8.34194 56.0043H15.164C16.4803 56.0043 17.5555 54.951 17.5555 53.6615V48.4493C17.5555 45.8704 19.6874 43.8 22.3013 43.8H40.0981C40.302 43.8 40.4874 43.7819 40.6728 43.7274C50.2942 43.237 57.9505 35.4277 57.9505 25.8749C57.9505 16.2313 50.1459 8.36756 40.3762 8.00433Z" fill="#7835F8"/>
</svg>
